<svg class="icon" width="64" height="64" viewBox="0 0 1024 1024" xmlns="http://www.w3.org/2000/svg"><path d="M522.8 372.5V233.9c0-5.5-4.5-10-10-10H329.5c-5.5 0-10 4.5-10 10v138.6c-18.1 6.2-31.1 23.4-31.1 43.5v206.2c0 25.4 20.6 46 46 46h12.4v48.9c0 5.5 4.5 10 10 10h20.8v63.1h87.2v-63.1h20.8c5.5 0 10-4.5 10-10v-48.9H508c25.4 0 46-20.6 46-46V416c-.1-20.2-13.1-37.3-31.2-43.5zM339.5 243.9h163.3V370H339.5V243.9zm136.1 463.2H366.8v-38.9h108.8v38.9zm58.3-84.9c0 14.3-11.7 26-26 26H334.4c-14.3 0-26-11.7-26-26V416c0-14.3 11.7-26 26-26h173.5c14.3 0 26 11.7 26 26v206.2zm163.6-306.7v-81.6c0-5.5-4.5-10-10-10h-63.1c-5.5 0-10 4.5-10 10v81.6c-21.6 3.8-38.1 22.6-38.1 45.3v151.7c0 25.4 20.6 46 46 46h14.8v231.6h37.7V558.5h14.8c25.4 0 46-20.6 46-46V360.8c0-22.7-16.5-41.5-38.1-45.3zm-63.1-71.6h43.1v71h-43.1v-71zm81.2 268.6c0 14.3-11.7 26-26 26h-67.3c-14.3 0-26-11.7-26-26V360.8c0-14.3 11.7-26 26-26h67.3c14.3 0 26 11.7 26 26v151.7z"/><path d="M442.1 304.5h46.7v46.7h-46.7zm-83.9 0h46.7v46.7h-46.7z"/></svg>