<svg class="icon" width="200" height="200" viewBox="0 0 1024 1024" xmlns="http://www.w3.org/2000/svg"><path d="M726.751 793.33c-65.132 50.88-147.106 81.2-236.161 81.2-212.044 0-383.94-171.896-383.94-383.94s171.896-383.94 383.94-383.94 383.94 171.896 383.94 383.94c0 99.938-38.183 190.957-100.756 259.266l123.38 123.38-45.248 45.248-125.155-125.155zM490.59 810.54c176.704 0 319.95-143.246 319.95-319.95 0-176.704-143.246-319.95-319.95-319.95-176.704 0-319.95 143.246-319.95 319.95 0 176.704 143.246 319.95 319.95 319.95zM383.94 443.785l-32.256 28.224-42.138-48.158L447.93 302.765V661.23h-63.99V443.785zm224.226 76.426l32.256-28.224 42.138 48.157L544.176 661.23V302.765h63.99v217.446z"/></svg>