<svg class="icon" width="64" height="64" viewBox="0 0 1024 1024" xmlns="http://www.w3.org/2000/svg"><path d="M591.644 574.578l-85.333 85.333-136.533-136.533 79.644-79.645-39.822-39.822-79.644 79.645-79.645-79.645-96.711 96.711a261.689 261.689 0 00-22.756 347.022L0 984.178 39.822 1024l130.845-130.844c45.51 39.822 102.4 56.888 159.289 56.888 68.266 0 136.533-28.444 187.733-79.644l96.711-96.711-73.956-73.956 85.334-85.333-34.134-39.822zm-113.777 250.31c-39.823 39.823-91.023 62.579-142.223 62.579-51.2 0-102.4-17.067-136.533-56.89l-5.689-5.688c-73.955-73.956-73.955-199.111 5.69-278.756l51.2-51.2L529.066 773.69l-51.2 51.2zM978.489 91.023L938.667 51.2 813.51 170.667c-45.511-39.823-102.4-56.89-159.289-56.89-68.266 0-136.533 28.445-187.733 79.645l-96.711 91.022 369.778 369.778 91.022-91.022a261.689 261.689 0 0022.755-347.022L978.49 91.022zM785.067 517.69L739.556 563.2 460.8 284.444l45.511-45.51c39.822-39.823 91.022-62.578 142.222-62.578s102.4 17.066 136.534 56.888l5.689 5.69c79.644 73.955 73.955 199.11-5.69 278.755z"/></svg>